<svg width="40" height="40" viewBox="0 0 40 40" fill="none" xmlns="http://www.w3.org/2000/svg">
<path d="M31.2929 32.7071C31.6834 33.0976 32.3166 33.0976 32.7071 32.7071C33.0976 32.3166 33.0976 31.6834 32.7071 31.2929L31.2929 32.7071ZM28.1765 18.5882C28.1765 23.8837 23.8837 28.1765 18.5882 28.1765V30.1765C24.9882 30.1765 30.1765 24.9882 30.1765 18.5882H28.1765ZM18.5882 28.1765C13.2928 28.1765 9 23.8837 9 18.5882H7C7 24.9882 12.1882 30.1765 18.5882 30.1765V28.1765ZM9 18.5882C9 13.2928 13.2928 9 18.5882 9V7C12.1882 7 7 12.1882 7 18.5882H9ZM18.5882 9C23.8837 9 28.1765 13.2928 28.1765 18.5882H30.1765C30.1765 12.1882 24.9882 7 18.5882 7V9ZM32.7071 31.2929L26.7952 25.381L25.381 26.7952L31.2929 32.7071L32.7071 31.2929Z" fill="#898989"/>
</svg>
